<?xml version="1.0" encoding="UTF-8"?>
<svg id="Layer_2" data-name="Layer 2" xmlns="http://www.w3.org/2000/svg" viewBox="0 0 615.78 641.84">
  <defs>
    <style>
      .cls-1, .cls-2 {
        stroke-linejoin: round;
      }

      .cls-1, .cls-2, .cls-3, .cls-4 {
        fill: none;
        stroke: #000;
      }

      .cls-1, .cls-2, .cls-4 {
        stroke-linecap: round;
      }

      .cls-1, .cls-3, .cls-4 {
        stroke-width: 13.2px;
      }

      .cls-5 {
        fill: #f24e00;
      }

      .cls-6 {
        fill: #ff7c00;
      }

      .cls-7 {
        fill: #ff7901;
      }

      .cls-2 {
        stroke-width: 14.85px;
      }

      .cls-8 {
        fill: #5b2715;
      }

      .cls-9 {
        fill: #60231c;
      }

      .cls-10 {
        fill: #ffa600;
      }

      .cls-11 {
        fill: #ff7801;
      }

      .cls-12 {
        fill: #ffa701;
      }

      .cls-13 {
        fill: #fff3d7;
      }

      .cls-14 {
        fill: #ffeed4;
      }

      .cls-15 {
        fill: #ffd788;
      }

      .cls-16 {
        fill: #ffefd7;
      }

      .cls-17 {
        fill: #fed68d;
      }

      .cls-18 {
        fill: #ff7c08;
      }

      .cls-19 {
        fill: #fff;
      }

      .cls-20 {
        fill: #ffd38a;
      }

      .cls-20, .cls-21 {
        opacity: .7;
      }

      .cls-22 {
        fill: #fc7200;
      }

      .cls-23 {
        opacity: .65;
      }

      .cls-24, .cls-25 {
        opacity: .6;
      }

      .cls-26 {
        fill: #ffa800;
      }

      .cls-25, .cls-27 {
        fill: #ff7800;
      }

      .cls-28 {
        fill: #feaf14;
      }

      .cls-3, .cls-4 {
        stroke-miterlimit: 10;
      }

      .cls-29 {
        fill: #ff7402;
      }

      .cls-30 {
        fill: #ffeed3;
      }

      .cls-31 {
        fill: #ffe8d6;
      }
    </style>
  </defs>
  <g id="trazado">
    <path class="cls-7" d="M301.72,160.4c5.41-10.82,14.06-24.42,23.72-37.31,2.95-3.93,5.98-7.73,9.02-11.33-36.53-8.72-51.34-10.88-57.25-11.29-.72,2.75-1.25,8.3.61,18.84.55,3.14,3.07,14.5,12.27,28.95,3.19,5.01,7.01,10.68,10.2,15.11.46-.97.93-1.96,1.43-2.97Z"/>
    <path class="cls-28" d="M583.17,567.6h-18.15c-3.64,0-6.6-2.96-6.6-6.6s2.96-6.6,6.6-6.6h18.15s.1,0,.14,0l1.54-52.51c-17.68,42-45.15,65.61-68.17,80.72,2.8,1.14,5.11,2.89,7.28,5.6,3.48,4.35,4.4,5.73,5.29,7.06.75,1.13,1.46,2.19,4.44,5.92,1.31.47,5.32.08,7.75-.15,2.3-.22,4.68-.45,7.07-.45h44.55c2.33,0,5.55-.98,7.6-3.73,2.18-2.93,2.5-7.27.93-12.52-2.49-8.3-13.62-16.75-18.43-16.75Z"/>
    <path class="cls-5" d="M290.56,222.77c4.87,4.33,24.74,19.5,51.23,31.96,3.25,1.53,5.87,2.23,7.6,2.49-1.03-5.01-4.76-14.65-7.16-20.85l-1.16-3c-3.08-8.02-5.03-14.2-6.59-19.16-2.64-8.39-3.83-11.91-6.76-14.84-1.02-.79-5.94-2.06-10.7-3.29-1.85-.48-3.89-1-6.14-1.61-7.41-1.98-14.96-3.6-22.45-4.81v-.09c-5.93-1.09-11.4-2.19-16.74-3.26-1.17-.23-2.6-.57-4.19-.95-2.63-.63-8.73-2.08-12.28-2.2,12.99,17.71,21.83,27.58,35.35,39.6Z"/>
    <path class="cls-11" d="M196.72,385.45c-7.08-5.95-15.76-11.06-26.43-14.52-3.47-1.12-5.37-4.84-4.25-8.31,1.12-3.47,4.84-5.37,8.31-4.25,21.3,6.89,38.26,20.23,50.4,39.64,7.75,12.39,11.84,24.58,14.14,32.68,16.32-14.63,25.83-35.63,25.83-57.79,0-42.76-34.79-77.55-77.55-77.55s-77.55,34.79-77.55,77.55c0,26.5,13.49,50.99,35.56,65.21,6.79-11.49,22.23-37.55,51.54-52.67Z"/>
    <path class="cls-26" d="M509.34,597.71c-1.13-1.15-2.35-2.4-3.64-3.79-2.88-.12-6.89-.11-12.72-.04-3.9.05-8.44.11-13.75.11-3.64,0-6.6-2.96-6.6-6.6s2.96-6.6,6.6-6.6c5.25,0,9.73-.06,13.58-.11,1.86-.02,3.59-.04,5.23-.05-1.11-5.58-.99-12.63-.82-21.92.06-3.32.13-6.97.15-10.96.05-9.7.1-20.69,1.69-35.33,1.72-15.9,4.37-27.99,6.71-38.65,1.97-8.97,4.22-17.97,6.69-26.77.99-3.51,4.63-5.55,8.14-4.57,3.51.99,5.55,4.63,4.57,8.14-2.41,8.55-4.59,17.31-6.51,26.03-2.27,10.34-4.84,22.06-6.49,37.25-1.51,13.96-1.56,24.13-1.61,33.97-.02,4.05-.09,7.76-.15,11.13-.08,4.47-.15,8.54-.06,12.01,29.07-19.32,65.31-53.32,76.19-124.82l.29-1.85c.4-2.47.74-4.59.89-8.24,1.43-33.94-1.82-70.33-5.25-108.86-1.46-16.41-2.98-33.38-4.24-51.18l-.27-3.79c-1.45-19.77-3.87-52.86,1.09-94.64,1.91-16.1,3.89-29.11,5.64-40.58,4.87-31.97,7.09-46.57-2.42-64.63-3.15-5.99-6.28-10.93-9.63-15.36-1.2,2.4-2.18,4.91-2.93,7.52-1.62,5.61-2.1,11.41-1.44,17.22.41,3.62-2.18,6.89-5.81,7.31-.25.03-.51.04-.76.04-3.31,0-6.16-2.48-6.55-5.85-.86-7.55-.24-15.08,1.86-22.38,1.46-5.08,3.6-9.89,6.38-14.35-6.39-6.31-13.95-12.32-23.83-20.16l-1.76-1.39c-9.88-7.84-18.45-11.77-25.6-11.77-9.42,0-18.54,12.15-26.58,22.87-1.54,2.05-3.04,4.05-4.52,5.95-3.67,4.69-6.3,8.08-8.3,10.65-5.93,7.63-6.41,8.25-11.72,14.36-6.04,6.97-19.81,12.18-28.09,12.18-4.31,0-8.05-.06-11.37-.11-14.36-.22-19.72-.3-30.49,4.49-14.34,6.37-24.09,13.16-35.96,25.04-6.26,6.26-12.9,14-19.19,22.39-9.21,12.28-17.4,25.14-22.48,35.29-2.67,5.33-4.56,10.18-5.8,13.77,2.19.52,4.38,1.07,6.56,1.65,2.21.59,4.21,1.11,6.03,1.58,8.69,2.24,13.48,3.48,16.74,6.73,5.33,5.33,7.2,11.25,10.02,20.21,1.51,4.79,3.39,10.75,6.32,18.39l1.15,2.98c7.62,19.71,11.05,29.44,5.82,35.18-2.52,2.76-5.96,3.73-9.53,3.73-5.61,0-11.53-2.38-14.66-3.85-28.03-13.19-48.76-29.04-54.37-34.04-9.54-8.48-17.03-16.14-25.03-25.86.72,2.73,1.6,5.71,2.68,8.94,4.7,14.1,15.31,27.77,20.4,34.34,3.32,4.27,5.42,7.06,7.04,9.2,4,5.3,4.84,6.4,14.13,16.86,5.56,6.26,6.91,11.45,8.21,16.47.9,3.47,1.75,6.76,4.17,11.11,3.23,5.82,6.14,9.38,8.48,12.23,1.08,1.32,2.17,2.65,3.11,4.08,7.1,8.04,15.23,15.1,24.2,20.98,9.21,6.03,19.21,10.77,29.72,14.08,3.48,1.09,5.41,4.8,4.31,8.28-.89,2.82-3.49,4.62-6.29,4.62-.66,0-1.32-.1-1.98-.31-11.66-3.67-22.76-8.93-32.98-15.62-5.7-3.73-11.08-7.9-16.13-12.45-.04.98-.05,2.14-.05,3.63,0,2.4,1.27,5.62,2.39,8.46,1.1,2.81,2.15,5.48,2.46,8.18,2.85,7.41,6.82,14.29,11.82,20.44,4.77,5.87,10.38,10.97,16.69,15.17,3.03,2.02,3.85,6.12,1.83,9.15-1.27,1.91-3.37,2.94-5.5,2.94-1.26,0-2.53-.36-3.65-1.11-7.41-4.93-14.01-10.93-19.61-17.83-3.61-4.44-6.76-9.21-9.43-14.24-2.18,1.16-4.6,1.83-6.9,1.83-6.43,0-14.31.41-21.93.82-5.44.29-11,.58-16.17.73-1.49,27.74-15.65,53.45-38.57,69.52-1.77,1.24-4.13,1.55-6.16.81-3.55-1.3-4.29-4.13-5.52-8.82-2.19-8.37-7.17-27.38-20.97-43.9-.04.02-.09.04-.13.06-28.35,12.99-43.46,38.57-49.91,49.5-.49.82-.98,1.66-1.5,2.48-4.38,13.23-7.88,24.9-10.97,35.22-4.86,16.26-8.71,29.1-13.55,39.86-15.05,33.45-55.76,34.68-67.87,34.27h-.29c-21.5-.53-38.1,6.36-45.58,18.86-3.99,6.67-4.67,14.31-1.75,19.48,2.05,3.62,5.67,5.54,10.46,5.54h219.17c3.79-.68,22.67-8.27,25.58-9.81,28.16-15.01,45.65-44.45,45.65-76.81,0-14.69-3.72-29.29-10.75-42.22-1.74-3.2-.56-7.21,2.64-8.95,3.2-1.74,7.21-.56,8.95,2.64,8.08,14.86,12.35,31.64,12.35,48.53,0,35.98-18.82,68.82-49.36,86.62h144c-.21-.86-.37-1.55-.46-1.96-.21-1.01-.15-2,.08-2.93-3.33-14.41-8.92-34.11-17.77-53.41-14.07-30.72-27.46-53.91-42.13-72.98-2.22-2.89-1.68-7.03,1.21-9.26,2.89-2.22,7.03-1.68,9.26,1.21,15.29,19.88,29.17,43.88,43.67,75.52,12.45,27.18,18.76,55.01,21.41,69.19.06.34.07.68.08,1.02,1.21,4.34,2.52,8.77,3.39,10.94,2.44,6.1,9.73,7.48,9.81,7.49,5.89.98,20.59.63,34.8.29,7.91-.19,16.09-.38,23.51-.38,1.27,0,3.66-.3,5.32-2.33,2.06-2.52,2.57-7.09,1.41-12.88-1.09-5.45-3.39-7.78-7.96-12.43ZM448.69,112.55c-.45,9.52-7.16,15.24-10.03,17.68-7.75,6.6-16.65,8.2-22.76,8.37-.07,0-.14,0-.21,0-4,0-7.3-3.19-7.42-7.21-.12-4.1,3.11-7.52,7.21-7.63,3.72-.11,9.08-1.03,13.54-4.83,2.47-2.1,4.69-4.22,4.82-7.07.14-2.92-1.98-5.14-2-5.16-1.05-1.06-1.64-1.23-7.53-1.13-1.13.02-2.36.04-3.68.04-4.1,0-7.42-3.32-7.42-7.42s3.32-7.43,7.42-7.43c1.23,0,2.37-.02,3.43-.04,6.52-.11,12.66-.22,18.35,5.54,1.12,1.14,6.69,7.26,6.26,16.29Z"/>
    <path d="M596.39,558.87l3.27-111.11.22-1.36c.42-2.63.86-5.36,1.05-9.78,1.47-34.8-1.82-71.61-5.29-110.59-1.46-16.35-2.96-33.26-4.22-50.95l-.28-3.82c-1.41-19.3-3.77-51.59,1.03-92.12,1.89-15.88,3.85-28.78,5.58-40.15,5.16-33.86,7.75-50.86-3.79-72.77-12.27-23.31-24.32-32.86-46.18-50.2l-1.87-1.49c-4.53-3.59-18.32-14.54-33.68-14.54s-27.24,14.95-37.14,28.15c-1.48,1.97-2.93,3.91-4.36,5.74-3.68,4.7-6.32,8.1-8.32,10.68-5.84,7.52-6.19,7.97-11.26,13.81-3.28,3.78-13.3,7.62-18.11,7.62-4.23,0-7.9-.06-11.17-.11-15.06-.22-22.63-.34-36.06,5.63-15.77,7.01-26.96,14.79-39.94,27.76-.43.43-.87.89-1.3,1.33-43.42-10.57-60.96-13.13-68.01-13.4-4.95-.19-9.47,2.73-11.25,7.27-2.43,6.23-2.59,15.1-.47,27.11.85,4.8,3.91,17.7,14.13,33.75.43.68,9.47,14.84,15.3,21.87-7.21-1.28-13.69-2.58-19.99-3.84-1.04-.21-2.31-.51-3.72-.85-9.64-2.3-25.76-6.14-28.73,5.72-1.72,6.87-2.23,19.68,5.09,41.64,5.41,16.23,16.95,31.11,22.5,38.26,3.27,4.21,5.34,6.96,6.93,9.07,4.16,5.51,5.15,6.82,14.8,17.67,3.45,3.88,4.19,6.72,5.3,11.01.97,3.74,2.18,8.38,5.41,14.21,3.81,6.85,7.28,11.09,9.81,14.19.52.64,1.1,1.34,1.6,1.98.25.51.54,1,.92,1.45.09.1.18.2.27.3,0,.02.02.04.02.05,0,0,0,.1-.06.33l-.17.68c-1.27,5.08-1.68,7.02-1.68,14.12,0,4.9,1.83,9.56,3.3,13.29.64,1.64,1.62,4.11,1.65,4.94.02,1.23-1.71,1.57-1.65,1.57-6.77,0-14.83.42-22.62.83-5.31.28-10.74.56-15.73.71-4.23-46.14-43.13-82.39-90.35-82.39-50.04,0-90.75,40.71-90.75,90.75,0,31.83,16.64,61.17,43.68,77.59-3.36,10.44-6.17,19.83-8.71,28.32-4.72,15.79-8.46,28.26-12.94,38.23-11.68,25.95-45.34,26.84-55.38,26.49h-.44c-26.36-.62-47.22,8.59-57.21,25.28-6.49,10.84-7.21,23.39-1.9,32.76,4.41,7.77,12.4,12.23,21.94,12.23h219.45c.27,0,.59-.03.93-.07.24.03.47.07.72.07h180.69c1.05,3.62,2.11,7.01,2.93,9.05,4.16,10.4,14.46,14.7,19.89,15.61,3.72.62,9.31.83,16.11.83,6.22,0,13.45-.17,21.18-.36,7.83-.19,15.93-.38,23.2-.38,6.14,0,11.8-2.61,15.53-7.16,2.65-3.23,5.36-8.68,4.97-17.27,1.64.36,3.35.49,5.06.49,2.25,0,4.5-.22,6.59-.42,2.08-.2,4.05-.39,5.8-.39h44.55c7.17,0,13.97-3.38,18.19-9.05,4.71-6.32,5.77-14.92,2.98-24.19-2.5-8.32-9.86-16.72-17.85-21.68ZM290.09,148.26c-9.2-14.45-11.71-25.81-12.27-28.95-1.86-10.54-1.33-16.09-.61-18.84,5.92.42,20.72,2.57,57.25,11.29-3.04,3.6-6.07,7.4-9.02,11.33-9.66,12.89-18.31,26.48-23.72,37.31-.5,1.01-.98,2-1.43,2.97-3.19-4.43-7.01-10.1-10.2-15.11ZM267.49,185.37c1.59.38,3.02.72,4.19.95,5.34,1.07,10.82,2.16,16.76,3.26v.09c7.47,1.21,15.03,2.83,22.43,4.81,2.25.6,4.29,1.13,6.14,1.61,4.76,1.23,9.68,2.5,10.7,3.29,2.93,2.93,4.12,6.45,6.76,14.84,1.56,4.96,3.51,11.14,6.59,19.16l1.16,3c2.4,6.2,6.12,15.84,7.16,20.85-1.72-.26-4.34-.96-7.6-2.49-26.49-12.46-46.35-27.63-51.23-31.96-13.52-12.02-22.36-21.9-35.35-39.6,3.55.12,9.65,1.58,12.28,2.2ZM109.62,372.9c0-42.76,34.79-77.55,77.55-77.55s77.55,34.79,77.55,77.55c0,22.16-9.52,43.16-25.83,57.79-2.3-8.1-6.39-20.29-14.14-32.68-12.14-19.41-29.1-32.75-50.4-39.64-3.47-1.12-7.19.78-8.31,4.25-1.12,3.47.78,7.19,4.25,8.31,10.67,3.45,19.35,8.57,26.43,14.52-29.31,15.11-44.75,41.18-51.54,52.67-22.07-14.22-35.56-38.71-35.56-65.21ZM515.89,623.02c-1.66,2.03-4.05,2.33-5.32,2.33-7.42,0-15.6.19-23.51.38-14.21.34-28.91.69-34.8-.29-.07-.01-7.36-1.39-9.81-7.49-.87-2.18-2.19-6.6-3.39-10.94,0-.34-.01-.68-.08-1.02-2.65-14.17-8.95-42.01-21.41-69.19-14.5-31.65-28.38-55.65-43.67-75.52-2.22-2.89-6.37-3.43-9.26-1.21-2.89,2.22-3.43,6.37-1.21,9.26,14.67,19.07,28.06,42.26,42.13,72.98,8.84,19.3,14.44,39,17.77,53.41-.23.93-.29,1.93-.08,2.93.08.41.25,1.1.46,1.96h-144c30.54-17.8,49.36-50.65,49.36-86.62,0-16.89-4.27-33.67-12.35-48.53-1.74-3.2-5.75-4.39-8.95-2.64-3.2,1.74-4.39,5.75-2.64,8.95,7.03,12.93,10.75,27.53,10.75,42.22,0,32.36-17.49,61.8-45.65,76.81-2.91,1.55-21.79,9.14-25.58,9.81H25.47c-4.79,0-8.41-1.91-10.46-5.54-2.93-5.16-2.24-12.81,1.75-19.48,7.48-12.5,24.08-19.39,45.58-18.87h.29c12.11.42,52.82-.81,67.87-34.26,4.85-10.77,8.69-23.61,13.55-39.86,3.09-10.32,6.58-21.99,10.97-35.22.52-.82,1.01-1.66,1.5-2.48,6.45-10.92,21.57-36.5,49.91-49.5.05-.02.09-.04.13-.06,13.8,16.52,18.78,35.53,20.97,43.9,1.23,4.69,1.97,7.52,5.52,8.82,2.03.75,4.39.43,6.16-.81,22.91-16.06,37.08-41.78,38.57-69.52,5.17-.15,10.73-.44,16.17-.73,7.62-.4,15.5-.82,21.93-.82,2.3,0,4.72-.67,6.9-1.83,2.67,5.03,5.82,9.8,9.43,14.24,5.61,6.9,12.2,12.9,19.61,17.83,1.12.75,2.4,1.11,3.65,1.11,2.13,0,4.23-1.03,5.5-2.94,2.02-3.03,1.2-7.13-1.83-9.15-6.31-4.2-11.92-9.3-16.69-15.17-5-6.16-8.97-13.03-11.82-20.44-.31-2.71-1.36-5.38-2.46-8.18-1.12-2.84-2.39-6.06-2.39-8.46,0-1.49.02-2.65.05-3.63,5.05,4.55,10.43,8.72,16.13,12.45,10.22,6.7,21.32,11.95,32.98,15.62.66.21,1.33.31,1.98.31,2.81,0,5.41-1.8,6.29-4.62,1.09-3.48-.84-7.18-4.31-8.28-10.51-3.31-20.51-8.04-29.72-14.08-8.97-5.88-17.1-12.94-24.2-20.98-.94-1.42-2.03-2.75-3.11-4.08-2.34-2.86-5.25-6.41-8.48-12.23-2.42-4.36-3.27-7.64-4.17-11.11-1.3-5.02-2.65-10.21-8.21-16.47-9.3-10.46-10.13-11.56-14.13-16.86-1.61-2.14-3.72-4.93-7.04-9.2-5.1-6.57-15.7-20.25-20.4-34.34-1.08-3.24-1.96-6.21-2.68-8.94,8,9.72,15.49,17.38,25.03,25.86,5.62,5,26.34,20.85,54.37,34.04,3.13,1.47,9.05,3.85,14.66,3.85,3.57,0,7.01-.96,9.53-3.73,5.23-5.75,1.8-15.48-5.82-35.18l-1.15-2.98c-2.94-7.64-4.81-13.6-6.32-18.39-2.82-8.96-4.69-14.88-10.02-20.21-3.26-3.26-8.04-4.49-16.74-6.73-1.81-.47-3.82-.98-6.03-1.58-2.17-.58-4.36-1.13-6.56-1.65,1.25-3.6,3.14-8.44,5.8-13.77,5.07-10.15,13.27-23.01,22.48-35.29,6.29-8.39,12.93-16.13,19.19-22.39,11.88-11.88,21.63-18.66,35.96-25.04,10.77-4.79,16.14-4.71,30.49-4.49,3.33.05,7.07.11,11.37.11,8.27,0,22.04-5.21,28.09-12.18,5.3-6.11,5.79-6.74,11.72-14.36,2-2.57,4.63-5.96,8.3-10.65,1.48-1.89,2.99-3.9,4.52-5.95,8.04-10.72,17.15-22.87,26.58-22.87,7.14,0,15.72,3.93,25.6,11.77l1.76,1.39c9.88,7.83,17.44,13.85,23.83,20.16-2.77,4.46-4.91,9.27-6.38,14.35-2.1,7.29-2.73,14.82-1.86,22.38.38,3.37,3.24,5.85,6.55,5.85.25,0,.5-.01.76-.04,3.62-.41,6.22-3.69,5.81-7.31-.66-5.82-.18-11.61,1.44-17.22.75-2.6,1.73-5.11,2.93-7.52,3.35,4.43,6.48,9.37,9.63,15.36,9.51,18.06,7.29,32.66,2.42,64.63-1.75,11.48-3.73,24.49-5.64,40.58-4.96,41.78-2.54,74.87-1.09,94.64l.27,3.79c1.27,17.81,2.78,34.77,4.24,51.18,3.44,38.53,6.68,74.93,5.25,108.86-.15,3.65-.5,5.78-.89,8.24l-.29,1.85c-10.88,71.5-47.12,105.5-76.19,124.82-.09-3.47-.02-7.55.06-12.01.06-3.38.13-7.08.15-11.13.05-9.84.1-20.01,1.61-33.97,1.65-15.19,4.22-26.91,6.49-37.25,1.91-8.72,4.1-17.47,6.51-26.03.99-3.51-1.06-7.15-4.57-8.14-3.51-.98-7.15,1.06-8.14,4.57-2.47,8.8-4.73,17.81-6.69,26.77-2.34,10.67-4.99,22.75-6.71,38.65-1.59,14.64-1.64,25.63-1.69,35.33-.02,3.99-.09,7.63-.15,10.96-.17,9.28-.29,16.34.82,21.92-1.64.01-3.37.03-5.23.05-3.85.05-8.34.11-13.58.11-3.64,0-6.6,2.96-6.6,6.6s2.96,6.6,6.6,6.6c5.31,0,9.85-.06,13.75-.11,5.83-.07,9.84-.09,12.72.04,1.29,1.39,2.51,2.63,3.64,3.79,4.57,4.65,6.87,6.98,7.96,12.43,1.16,5.79.66,10.36-1.41,12.88ZM600.67,596.87c-2.05,2.75-5.27,3.73-7.6,3.73h-44.55c-2.39,0-4.77.23-7.07.45-2.43.24-6.44.62-7.75.15-2.97-3.72-3.68-4.79-4.44-5.92-.89-1.33-1.81-2.71-5.29-7.06-2.17-2.72-4.48-4.47-7.28-5.6,23.02-15.11,50.49-38.72,68.17-80.72l-1.54,52.51s-.1,0-.14,0h-18.15c-3.64,0-6.6,2.96-6.6,6.6s2.96,6.6,6.6,6.6h18.15c4.8,0,15.94,8.44,18.43,16.75,1.58,5.26,1.26,9.59-.93,12.52Z"/>
    <path d="M424.07,90.71c-1.06.02-2.19.04-3.43.04-4.1,0-7.42,3.32-7.42,7.43s3.32,7.42,7.42,7.42c1.32,0,2.55-.02,3.68-.04,5.89-.1,6.48.06,7.53,1.13.02.02,2.14,2.24,2,5.16-.14,2.85-2.36,4.97-4.82,7.07-4.46,3.8-9.83,4.73-13.54,4.83-4.1.12-7.33,3.53-7.21,7.63.11,4.03,3.41,7.21,7.42,7.21.07,0,.14,0,.21,0,6.1-.17,15-1.77,22.76-8.37,2.87-2.44,9.58-8.16,10.03-17.68.43-9.04-5.14-15.15-6.26-16.29-5.69-5.76-11.84-5.65-18.35-5.54Z"/>
  </g>
  <g id="Capa_4" data-name="Capa 4">
    <path class="cls-22" d="M256.47,184.8c17.02,10.67,13.61,9.01,18.15,11.55,9.63,5.38,17.17,8.45,24.75,11.55,10.42,4.27,16.24,6.61,24.75,8.25,11.99,2.31,13.82,2.79,14.85,1.65,2.93-3.26-1.34-13.56-8.25-19.8-3.15-2.85-6.85-4.85-23.1-8.25-19.89-4.16-22.47-2.85-39.6-6.6-9.85-2.16-17.7-4.49-18.15-3.3-.26.69,2.08,2.12,6.6,4.95Z"/>
  </g>
  <g id="Capa_6" data-name="Capa 6">
    <polygon class="cls-17" points="276.27 100.65 330.72 123.75 340.62 108.9 279.57 92.4 276.27 100.65"/>
    <path class="cls-10" d="M317.52,135.3c-5.99-4.77-12.04-9.72-18.15-14.85-9.22-7.75-18.02-15.47-26.4-23.1,21.45,7.7,42.9,15.4,64.35,23.1l-19.8,14.85Z"/>
  </g>
  <g id="Capa_8" data-name="Capa 8">
    <path class="cls-30" d="M60.12,602.25c-1.65-6.6-1.56-8.7,0-16.5q1.65-8.25,8.25-19.8c5.18-9.07,9.21-10.56,8.25-13.2-1.87-5.13-18.48-4.11-29.7-1.65-10.72,2.35-24.8,5.45-33,18.15-4.98,7.72-9.47,21.58-3.3,29.7,2.78,3.66,11.21,5.19,28.05,8.25,2.07.38,5.66.98,9.9,0,1.76-.4,3.29-1,4.95-1.65,3.72-1.45,6.97-1.84,6.6-3.3Z"/>
  </g>
  <g id="Capa_9" data-name="Capa 9">
    <path class="cls-14" d="M112.92,330c-17.01,22.22-13.58,58.95,0,84.15,8.17,15.16,19.84,25.82,21.45,24.75,1.59-1.06-7.9-12.83-11.55-31.35-1.41-7.15-5.22-26.49,4.95-46.2,12.91-25.03,38.69-31.94,42.9-33,14.2-3.57,26.46-1.61,33,0,12.5,3.07,21.06,8.96,24.75,11.55,6.63,4.65,10.58,8.83,11.55,9.9,3.07,3.37,7.1,7.8,9.9,14.85,2.89,7.29,3.15,14.06,3.3,18.15.01.29.09,2.49,0,4.95-.65,17.62-9.82,42.84-6.6,44.55,2.63,1.39,14.8-12.18,21.45-29.7,1.51-3.98,4.14-11.86,4.95-21.45,1.94-22.91-6.19-59.23-36.3-79.2-20.48-13.58-41.71-13.35-47.85-13.2-4.24.1-18.6.78-34.65,8.25-11.84,5.51-19.98,12.57-26.4,18.15-3.9,3.38-10.38,9.01-14.85,14.85Z"/>
    <path class="cls-12" d="M137.67,432.3c.82-.5-3.22-5.99-6.6-18.15-1.43-5.15-3.73-13.69-3.3-24.75.2-5.23.43-11.08,3.3-18.15,3.61-8.9,9.21-14.29,11.55-16.5,5.11-4.82,10.03-7.39,14.85-9.9,5.64-2.94,10.17-4.49,11.55-4.95,6.88-2.29,12.51-3.04,14.85-3.3,5-.56,13.93-1.47,24.75,1.65,3.25.94,12.32,3.87,21.45,11.55,3.63,3.06,13.53,11.62,18.15,26.4,4.82,15.44,2.23,32.42-4.95,44.55-3.96,6.68-9.36,11.98-8.25,13.2.95,1.04,6.12-1.55,9.9-4.95,6.53-5.88,8.5-13.83,9.9-19.8,1-4.28,1.23-7.32,1.65-13.2.74-10.46,1.14-16.09,0-23.1-1.97-12.1-7.26-20.61-9.9-24.75-6.8-10.68-14.59-16.71-16.5-18.15-10.09-7.6-19.7-10.23-24.75-11.55-5.61-1.47-21.11-5.34-39.6,0-11.56,3.34-19.34,8.84-23.1,11.55-4.89,3.52-12.03,8.77-18.15,18.15-2.84,4.35-10.89,17.92-9.9,36.3.4,7.35,2.09,12.74,3.3,16.5,6.1,18.95,18.47,32.16,19.8,31.35Z"/>
  </g>
  <g id="Capa_15" data-name="Capa 15">
    <path class="cls-16" d="M436.32,603.9c1.68-1.72,3.81-.4,9.9-1.65,3.43-.7,5.92-1.77,14.85-6.6,14.22-7.69,12.37-7.39,14.85-8.25,8.26-2.86,15.58-1.59,24.75,0,9.8,1.7,14.69,2.55,18.15,6.6,5.61,6.57,3.92,16.25,3.3,19.8-1.25,7.18-4.68,12.44-6.6,14.85-14.1,17.65-56.15,18.06-72.6-1.65-6.2-7.42-10.2-19.42-6.6-23.1Z"/>
  </g>
  <g id="Capa_16" data-name="Capa 16">
    <path class="cls-18" d="M497.37,584.1c-15.78,2.16-19.43,1.26-19.8,0-.34-1.16,2.19-2.37,6.6-8.25,1.05-1.41,2.24-2.99,3.3-4.95,2.31-4.27,2.72-7.92,3.3-11.55,0,0,.02-.13,3.3-14.85,2.28-10.23,6.75-23.36,8.25-23.1,1.47.25,1.16,13.46-4.95,62.7Z"/>
    <path class="cls-18" d="M525.42,575.85c1.55,1.99,7.16-.06,11.55-1.65,4.15-1.51,10.41-4.26,18.15-9.9,3.77-2.75,6.31-5.03,9.9-8.25,4.82-4.33,8.11-7.28,11.55-11.55,0,0,5.16-6.4,8.25-13.2,7.85-17.28,2.77-40.92-1.65-41.25-2.61-.19-2.35,8.48-9.9,24.75-10.94,23.58-30.29,45.89-39.6,49.5-.69.27-4.23,1.56-6.6,4.95-1.24,1.77-2.83,5.09-1.65,6.6Z"/>
  </g>
  <g id="Capa_10" data-name="Capa 10">
    <path class="cls-30" d="M500.67,41.25c-1.65,19.8-1.65,18.15-4.95,44.55-2.08,16.61-6.04,35.13-11.55,46.2-5.33,10.7-11.33,17.73-29.7,37.95-17.59,19.36-19.69,19.79-23.1,24.75-3.86,5.63-19.92,29.81-14.85,61.05,1.35,8.32,3.96,21.09,16.5,33,8.77,8.33,15.5,11.38,46.2,23.1,18.73,7.15,28.14,10.66,31.35,13.2,31.35,24.75,27.63,64.86,26.4,79.2-4.95,57.75-19.8,49.5-24.75,70.95-5.89,25.54-.73,19.22-8.25,72.6-2.59,18.38-4.27,27.06,0,29.7,8.39,5.19,31.43-18.11,42.9-29.7,19.3-19.51,35.91-36.31,44.55-62.7,4.14-12.66,3.92-28.96,3.3-61.05-.38-19.84-1.59-54.51-6.6-107.25-2.64-27.82-4.03-36.35-4.95-57.75-.74-17.3-1.47-34.26,0-56.1,1.03-15.27,3.98-36.03,9.9-77.55,3.02-21.21,4.21-28.54,1.65-39.6-3.48-15.02-11.04-24.63-23.1-39.6-19.66-24.41-32.57-40.44-46.2-37.95-14.07,2.57-23.92,22.99-24.75,33Z"/>
  </g>
  <g id="Capa_17" data-name="Capa 17">
    <path class="cls-15" d="M376.92,90.75c.51.84,8.36-4.89,21.45-6.6,7.53-.98,14.06-.28,16.5,0,7.81.89,8.75,2.28,16.5,3.3,5.92.78,11.79,1.55,18.15,0,8.58-2.08,13.9-7.36,19.8-13.2,8.14-8.06,6.85-10.26,16.5-21.45,9.25-10.72,14.15-13,13.2-16.5-1.25-4.63-11.78-7.91-19.8-4.95-10.99,4.06-7.76,16.33-18.15,26.4-14,13.56-30.54,1.65-59.4,14.85-15.39,7.04-25.36,17.15-24.75,18.15Z"/>
  </g>
  <g id="Capa_18" data-name="Capa 18">
    <ellipse class="cls-19" cx="389.75" cy="102.97" rx="13.95" ry="8.03" transform="translate(-4.31 187.98) rotate(-26.97)"/>
  </g>
  <g id="Capa_19" data-name="Capa 19">
    <path class="cls-29" d="M322.47,186.45c-1.65-3.3,0-8.25,1.65-14.85.95-3.81,1.31-7.01,3.3-13.2,2.64-8.18,5.71-13.84,9.9-21.45,13.2-23.96,15.58-27.46,14.85-28.05-1.45-1.17-14.5,9.72-24.75,24.75-12.55,18.4-9.8,26.72-19.8,39.6-.6.78-4.79,6.13-3.3,8.25.64.91,1.75.39,6.6,1.65,2.46.64,3.69.96,4.95,1.65,1.3.71,1.91,1.32,3.3,1.65.3.07,3.85,1.1,3.3,0Z"/>
  </g>
  <g id="Capa_21" data-name="Capa 21">
    <path class="cls-13" d="M510.57,584.1c.52-4.46,5.01-7.62,8.25-9.9,4.46-3.14,8.21-3.93,23.1-6.6,11.81-2.12,17.76-3.18,19.8-3.3,8.84-.5,15.27.47,23.1,1.65,10.36,1.56,15.55,2.34,18.15,4.95,6.28,6.29,5.74,18.42,1.65,26.4-1.69,3.3-3.79,5.5-4.95,6.6-12.64,11.97-37.95,6.6-62.7,3.3-3-.4-27.71-11.87-26.4-23.1Z"/>
  </g>
  <g id="Capa_20" data-name="Capa 20" class="cls-21">
    <path class="cls-20" d="M599.67,580.8c-4.97.97-8.99,1.65-11.55,1.65h-31.35c-3.57,0-6.6,0-9.9-1.65-4.93-2.47-2.03-6.56-6.6-9.9-6.49-4.73-19.3-.41-19.8,3.3-.11.81-2.88,1.15-1.65,3.3.61,1.08.99,5.19,3.3,11.55,2.96,8.15,6.59,6.14,8.25,8.25.57.73,1.62,2.04,3.3,3.3,4.26,3.19,9.23,3.28,11.55,3.3,17.65.16,26.48.24,31.35,0,20.9-1.03,24.6.63,28.05-3.3,4.97-5.67,4.52-17.34,0-19.8-.98-.53-2.52-.83-4.95,0"/>
  </g>
  <g id="Capa_22" data-name="Capa 22">
    <path class="cls-8" d="M513.87,580.8c.26,1.14.76,2,3.3,4.95,4.94,5.75,15.36,17.27,14.85,16.5-3.3-4.95-11.55-26.4-13.2-31.35-.81-2.44-5.93,5.54-4.95,9.9Z"/>
  </g>
  <g id="Capa_7" data-name="Capa 7">
    <path class="cls-9" d="M503.72,8.62c-15.29,4.71-27.49,19.42-24.93,25.57,1.07,2.58,4.71,3.52,11.98,5.41,1.95.51,8.02,1.96,16.5,1.65,4.27-.16,10.59-.44,18.15-3.3,6.77-2.56,10.87-5.8,18.15-11.55,4.77-3.77,4.92-4.51,4.95-4.95.41-6.63-24.07-19.21-44.8-12.83Z"/>
  </g>
  <g id="Capa_11" data-name="Capa 11" class="cls-23">
    <path class="cls-27" d="M8.97,584.1c.77-.46,1.45-.6,1.7-.65,4.17-.9,4.29-1.85,13.15-4.3.58-.16,7.34-2.01,14.85-3.3,20.09-3.45,39.6-3.3,39.6-3.3,30.12.24,14.4-1.5,79.2-1.65,0,0,41.41-.1,74.25-3.3,3.6-.35,13.05-1.33,24.75-4.95,10.51-3.25,17.52-6.99,19.8-8.25,5.14-2.83,10.77-5.93,16.5-11.55,1.56-1.53,8.41-8.42,13.2-19.8,9.64-22.88,2.64-44.08,4.95-44.55,2.14-.44,11.27,17.08,11.55,37.95.34,24.72-11.49,50.62-31.35,67.65-20.16,17.28-42.34,19.99-70.95,23.1-39.08,4.24-38-5.08-80.85-3.3-24.26,1.01-78.15,6.23-107.25,3.3,0,0-18.23-1.83-24.75-11.55-1.63-2.43-1.65-4.95-1.65-4.95-.02-2.39,1.06-5.27,3.3-6.6Z"/>
  </g>
  <g id="Capa_12" data-name="Capa 12">
    <polygon class="cls-31" points="327.42 524.7 401.91 524.7 429.72 600.95 343.92 603.78 263.66 603.78 307.62 569.25 327.42 524.7"/>
  </g>
  <g id="Capa_13" data-name="Capa 13" class="cls-24">
    <path class="cls-25" d="M322.47,536.25h21.45c8.47,0,12.31-.12,16.5-1.65,7.98-2.91,12.78-10.84,13.2-11.55.98-1.67,1.53-3.01,1.65-3.3,2.27-5.62,1.94-11.51,0-19.8-3.39-14.48-4.95-18.15-4.95-23.1,0-3.33,5.64-3.19,6.6-3.3,7.55-.87,15.04,5.75,28.05,23.1,12.27,16.37,18.4,24.55,24.75,37.95,10.29,21.7,13.88,32.91,18.15,47.85,3.3,11.55,4.95,18.15,9.9,21.45,4.63,3.08,9.54,3.26,13.2,3.3,34.18.33,47.1-4.95,52.8,1.65,4.31,4.99,2.8,14.81-1.65,19.8-4.47,5.01-11.69,4.92-18.15,4.95-45.87.21-53.46,6.34-61.05-1.65-7.97-8.4-2.82-18.58-11.55-24.75-8.79-6.22-21.7.17-26.4,0-46.2-1.65-137.25,11.81-140.25,0-1.57-6.18,22.87-8.22,37.95-33,11.06-18.17,7.13-37.95,19.8-37.95Z"/>
  </g>
  <g id="Capa_5" data-name="Capa 5">
    <path class="cls-6" d="M147.57,468.6c1.17.31,2.8-3.84,6.6-9.9,1.14-1.81,9.08-12.51,14.85-18.15,2.42-2.36,7.76-7.29,21.45-9.9,6.6-1.26,11.31-2.16,16.5,0,9.9,4.11,13.2,4.95,21.45,18.15,1.01,1.61,6.32,2,8.25,0,1.79-1.86.08-5.85-8.25-23.1-6.08-12.59-7.93-16.14-9.9-19.8-6.23-11.55-9.38-17.34-11.55-18.15-9.19-3.45-22.16,11.4-39.6,31.35-11.87,13.59-17.63,23.07-19.8,34.65-1.15,6.14-1.59,14.44,0,14.85Z"/>
    <path class="cls-6" d="M279.57,376.2c-.91,2.68,1.5,5.65,4.95,9.9,2.23,2.75,6.41,7.17,18.15,13.2,11.48,5.89,18.99,9.75,28.05,9.9,5.55.09,8.25,0,14.85,0h6.6c2.88,0,3.73-5.25,3.3-8.25-.98-6.82-10.11-5.97-18.15-14.85-8-8.84-6.51-18.04-13.2-19.8-2.83-.75-5.02.39-8.25,1.65-19.86,7.73-34.32,2.42-36.3,8.25Z"/>
    <path class="cls-6" d="M320.82,339.9l15.41,41.25,25.06,19.8c-.14-4.42.19-12.46,4.08-21.45,3.52-8.14,8.43-13.55,11.55-16.5-17.01-8.8-34.02-17.6-51.03-26.4l-5.07,3.3Z"/>
  </g>
  <g id="Capa_14" data-name="Capa 14">
    <path class="cls-6" d="M287.82,232.65c14.85,21.45,18.07,28.49,24.75,31.35,1.82.78,7.33,2.85,11.55,8.25,3.76,4.81,4.62,9.87,4.95,11.55,3.01,15.49,16.65,31.76,19.8,36.3,8.4,12.08,8.89,17.03,34.65,34.65,1.69,1.16.2,4.87-1.65,6.6-8.96,8.39-59.17-13.63-67.65-46.2-2.13-8.16-1.86-17.86-9.9-28.05-1-1.27-2.34-2.81-14.85-13.2-18.46-15.33-18.74-14.63-21.45-18.15-5.61-7.27-2.3-7.5-11.55-28.05-5.36-11.91-8.87-17.14-6.6-23.1,1.63-4.28,5.43-6.82,8.25-8.25"/>
  </g>
  <g id="trazado_copia" data-name="trazado copia">
    <path class="cls-1" d="M203.67,389.4c-39.6,18.15-54.55,58.61-56.65,57.47-26.21-14.26-44-42.04-44-73.97,0-46.47,37.68-84.15,84.15-84.15s84.15,37.68,84.15,84.15c0,28.53-14.19,53.74-35.9,68.95-1.88,1.32-7-59.05-63.1-77.2"/>
    <path class="cls-1" d="M310.92,468.6c7.27,13.36,11.55,29.02,11.55,45.38,0,35.9-19.93,67.06-49.14,82.63-3.06,1.63-24.91,10.59-28.41,10.59H25.47c-31.09,0-27.03-58.58,37.01-57.08,2.81.07,47.14,2.63,61.99-30.37,7.8-17.34,13.2-41.25,24.75-75.9"/>
    <path class="cls-1" d="M246.57,607.2h185.92c-2.79-14.92-9.12-41.9-20.92-67.65-12.96-28.29-26.4-52.8-42.9-74.25"/>
    <path class="cls-1" d="M429.72,597.3c.55,2.67,4.57,18.03,6.6,23.1,3.3,8.25,11.91,11.06,14.85,11.55,9.9,1.65,37.95,0,59.4,0,8.17,0,16.5-6.6,13.2-23.1-2.1-10.52-8.25-13.2-16.5-23.1-4.79-5.74-3.4-17.18-3.3-37.95.05-10.23.13-20.62,1.65-34.65,1.65-15.23,4.13-26.67,6.6-37.95,2.37-10.81,4.75-19.82,6.6-26.4"/>
    <path class="cls-1" d="M479.22,587.4c28.05,0,34.34-1.62,39.6,4.95,6.6,8.25,3.3,4.95,9.9,13.2,3.48,4.34,12.41,1.65,19.8,1.65h44.55c9.23,0,19.8-8.25,14.85-24.75-3.13-10.44-16.5-21.45-24.75-21.45h-18.15"/>
    <line class="cls-1" x1="589.77" y1="559.35" x2="593.07" y2="447.15"/>
    <path class="cls-3" d="M271.32,371.25c13.2,0,31.35-1.65,44.55-1.65,2.92,0,8.32-2.56,8.25-8.25-.06-4.45-4.95-11.55-4.95-18.15,0-6.94.38-8.14,1.65-13.2,1.65-6.6-4.95-8.25-13.2-23.1-6.46-11.63-3.53-17.38-11.55-26.4-13.2-14.85-9.8-11.38-21.45-26.4-5.81-7.49-16.5-21.45-21.45-36.3-6.6-19.8-6.55-31.54-4.95-37.95,1.65-6.6,17.95-1.36,24.75,0,8.25,1.65,16.5,3.3,26.4,4.95,0,0,2.3-9.55,8.25-21.45,4.95-9.9,13.2-23.1,23.1-36.3,6.34-8.45,13.2-16.5,19.8-23.1,13.12-13.12,23.83-20.12,37.95-26.4,14.85-6.6,21.47-4.95,44.55-4.95,6.6,0,18.51-4.61,23.1-9.9,6.96-8.03,5.41-6.35,19.8-24.75,10.16-13,21.45-31.35,36.3-31.35,13.2,0,25.86,10.15,29.7,13.2,22.48,17.83,34.26,26.82,46.2,49.5,14.11,26.8,4.95,46.2-2.51,109.07-5.21,43.92-2.15,78-.79,97.18,4.31,60.64,11.55,112.2,9.5,160.79-.21,4.94-.74,7.4-1.25,10.81-11.55,75.9-51.15,112.2-85.8,133.65"/>
    <path class="cls-4" d="M355.47,400.95c-5.01-3.34-11.74-8.61-18.15-16.5-7.06-8.69-11-17.18-13.2-23.1"/>
    <path class="cls-4" d="M376.92,361.35c-8.32-2.62-19.48-7.08-31.35-14.85-12.03-7.88-20.65-16.46-26.4-23.1"/>
    <path class="cls-4" d="M301.02,174.9c-3.64-3.66-11.81-15.73-16.5-23.1-9.89-15.53-12.57-27.78-13.2-31.35-1.8-10.25-1.9-18.38.12-23.57.76-1.96,2.74-3.16,4.84-3.08,5.95.23,22.41,2.41,67.64,13.45"/>
    <path class="cls-4" d="M561.72,82.5c-.49-4.27-.76-11.44,1.65-19.8,2.2-7.64,5.75-13.18,8.25-16.5"/>
    <path class="cls-3" d="M248.22,184.8c13.77,18.96,23.1,29.7,37.95,42.9,4.65,4.13,24.75,19.8,52.8,33,6.34,2.99,13.75,4.66,16.5,1.65,2.94-3.23-3.17-18.13-8.25-31.35-8.25-21.45-8.25-29.7-14.85-36.3-2.47-2.47-8.48-3.57-19.8-6.6-9.55-2.56-17.58-4.06-23.1-4.95"/>
    <path class="cls-2" d="M415.7,131.17c3.5-.1,11.4-.85,18.15-6.6,2.67-2.28,7.13-6.17,7.42-12.38.29-6.13-3.7-10.3-4.12-10.73-4.1-4.14-8.25-3.3-16.5-3.3"/>
  </g>
</svg>